<?xml version="1.0" encoding="UTF-8" standalone="no"?>
<!DOCTYPE svg PUBLIC "-//W3C//DTD SVG 1.1//EN" "http://www.w3.org/Graphics/SVG/1.1/DTD/svg11.dtd">
<!-- 由 Microsoft Visio, SVG Export 生成 System_Framework.svg 系统框架图 -->
<svg xmlns="http://www.w3.org/2000/svg" xmlns:xlink="http://www.w3.org/1999/xlink" xmlns:ev="http://www.w3.org/2001/xml-events"
		xmlns:v="http://schemas.microsoft.com/visio/2003/SVGExtensions/" width="11.4692in" height="5.88484in"
		viewBox="0 0 825.781 423.708" xml:space="preserve" color-interpolation-filters="sRGB" class="st10">
	<v:documentProperties v:langID="2052" v:metric="true" v:viewMarkup="false">
		<v:userDefs>
			<v:ud v:nameU="msvSubprocessMaster" v:prompt="" v:val="VT4(Box)"/>
			<v:ud v:nameU="msvNoAutoConnect" v:val="VT0(1):26"/>
		</v:userDefs>
	</v:documentProperties>

	<style type="text/css">
	<![CDATA[
		.st1 {fill:none;stroke:#ffc000;stroke-linecap:round;stroke-linejoin:round;stroke-width:3}
		.st2 {fill:#5b9bd5;font-family:Times New Roman;font-size:1.99999em}
		.st3 {font-size:1em}
		.st4 {fill:#5b9bd5;stroke:#ffffff;stroke-linecap:round;stroke-linejoin:round;stroke-width:0.5}
		.st5 {fill:#ffffff;font-family:Times New Roman;font-size:1.5em}
		.st6 {fill:none;stroke:#ff0000;stroke-linecap:round;stroke-linejoin:round;stroke-width:3}
		.st7 {fill:#5b9bd5}
		.st8 {stroke:#ffffff;stroke-linecap:round;stroke-linejoin:round;stroke-width:0.5}
		.st9 {fill:#5b9bd5;stroke:#ffffff;stroke-linecap:round;stroke-linejoin:round;stroke-width:0.5;visibility:hidden}
		.st10 {fill:none;fill-rule:evenodd;font-size:12px;overflow:visible;stroke-linecap:square;stroke-miterlimit:3}
	]]>
	</style>

	<g v:mID="0" v:index="1" v:groupContext="foregroundPage">
		<v:userDefs>
			<v:ud v:nameU="msvThemeOrder" v:val="VT0(0):26"/>
		</v:userDefs>
		<title>系统框架</title>
		<v:pageProperties v:drawingScale="0.0393701" v:pageScale="0.0393701" v:drawingUnits="24" v:shadowOffsetX="8.50394"
				v:shadowOffsetY="-8.50394"/>
		<v:layer v:name="连接线" v:index="0"/>
		<g id="shape1020-1" v:mID="1020" v:groupContext="shape" transform="translate(407.311,-19.5)">
			<title>工作表.1020</title>
			<desc>Remote</desc>
			<v:textBlock v:margins="rect(4,4,4,4)" v:tabSpace="42.5197" v:verticalAlign="2"/>
			<v:textRect cx="103.933" cy="231.354" width="207.87" height="384.708"/>
			<rect x="0" y="39" width="207.867" height="384.708" class="st1"/>
			<text x="4" y="412.51" class="st2" v:langID="1033"><v:paragraph/><v:tabList/>Remot<tspan class="st3" v:langID="2052">e</tspan></text>		</g>
		<g id="shape1000-5" v:mID="1000" v:groupContext="shape" transform="translate(236.674,-267.699)">
			<title>框.1000</title>
			<desc>MCU</desc>
			<v:userDefs>
				<v:ud v:nameU="visVersion" v:val="VT0(15):26"/>
			</v:userDefs>
			<v:textBlock v:margins="rect(4,4,4,4)" v:tabSpace="42.5197"/>
			<v:textRect cx="62.0497" cy="377.171" width="124.1" height="93.0746"/>
			<rect x="0" y="330.634" width="124.099" height="93.0746" class="st4"/>
			<text x="41.54" y="382.57" class="st5" v:langID="2052"><v:paragraph v:horizAlign="1"/><v:tabList/>MCU</text>		</g>
		<g id="shape1001-8" v:mID="1001" v:groupContext="shape" transform="translate(447.643,-267.699)">
			<title>框.1001</title>
			<desc>ESP</desc>
			<v:userDefs>
				<v:ud v:nameU="visVersion" v:val="VT0(15):26"/>
			</v:userDefs>
			<v:textBlock v:margins="rect(4,4,4,4)" v:tabSpace="42.5197"/>
			<v:textRect cx="62.0497" cy="377.171" width="124.1" height="93.0746"/>
			<rect x="0" y="330.634" width="124.099" height="93.0746" class="st4"/>
			<text x="46.54" y="382.57" class="st5" v:langID="2052"><v:paragraph v:horizAlign="1"/><v:tabList/>ESP</text>		</g>
		<g id="shape1002-11" v:mID="1002" v:groupContext="shape" transform="translate(683.432,-267.699)">
			<title>框.1002</title>
			<desc>MQTT Broker</desc>
			<v:userDefs>
				<v:ud v:nameU="visVersion" v:val="VT0(15):26"/>
			</v:userDefs>
			<v:textBlock v:margins="rect(4,4,4,4)" v:tabSpace="42.5197"/>
			<v:textRect cx="62.0497" cy="377.171" width="124.1" height="93.0746"/>
			<rect x="0" y="330.634" width="124.099" height="93.0746" class="st4"/>
			<text x="9.31" y="382.57" class="st5" v:langID="2052"><v:paragraph v:horizAlign="1"/><v:tabList/>MQTT Broker</text>		</g>
		<g id="shape1003-14" v:mID="1003" v:groupContext="shape" transform="translate(447.643,-66.0373)">
			<title>框.1003</title>
			<desc>Client</desc>
			<v:userDefs>
				<v:ud v:nameU="visVersion" v:val="VT0(15):26"/>
			</v:userDefs>
			<v:textBlock v:margins="rect(4,4,4,4)" v:tabSpace="42.5197"/>
			<v:textRect cx="62.0497" cy="377.171" width="124.1" height="93.0746"/>
			<rect x="0" y="330.634" width="124.099" height="93.0746" class="st4"/>
			<text x="42.3" y="382.57" class="st5" v:langID="2052"><v:paragraph v:horizAlign="1"/><v:tabList/>Client</text>		</g>
		<g id="shape1009-17" v:mID="1009" v:groupContext="shape" transform="translate(19.5,-19.5)">
			<title>工作表.1009</title>
			<desc>Local</desc>
			<v:textBlock v:margins="rect(4,4,4,4)" v:tabSpace="42.5197" v:verticalAlign="2"/>
			<v:textRect cx="190.027" cy="231.354" width="380.06" height="384.708"/>
			<rect x="0" y="39" width="380.055" height="384.708" class="st6"/>
			<text x="4" y="412.51" class="st2" v:langID="2052"><v:paragraph/><v:tabList/>Local</text>		</g>
		<g id="shape1004-20" v:mID="1004" v:groupContext="shape" transform="translate(360.773,-285.89)">
			<title>一维双向箭头.1004</title>
			<desc>UART</desc>
			<v:userDefs>
				<v:ud v:nameU="visVersion" v:val="VT0(15):26"/>
			</v:userDefs>
			<v:textBlock v:margins="rect(4,4,4,4)" v:tabSpace="42.5197"/>
			<v:textRect cx="43.4348" cy="395.362" width="86.87" height="56.6929"/>
			<path d="M14.17 381.19 L14.17 367.02 L0 395.36 L14.17 423.71 L14.17 409.54 L72.7 409.54 L72.7 423.71 L86.87 395.36 L72.7
						 367.02 L72.7 381.19 L14.17 381.19 Z" class="st4"/>
			<text x="18.94" y="400.76" class="st5" v:langID="2052"><v:paragraph v:horizAlign="1"/><v:tabList/>UART</text>		</g>
		<g id="shape1005-23" v:mID="1005" v:groupContext="shape" transform="translate(615.178,-285.89) rotate(3.16433E-05)">
			<title>一维双向箭头.1005</title>
			<desc>MQTT</desc>
			<v:userDefs>
				<v:ud v:nameU="visVersion" v:val="VT0(15):26"/>
			</v:userDefs>
			<v:textBlock v:margins="rect(4,4,4,4)" v:tabSpace="42.5197"/>
			<v:textRect cx="34.1274" cy="395.362" width="68.26" height="56.6929"/>
			<path d="M14.17 381.19 L14.17 367.02 L0 395.36 L14.17 423.71 L14.17 409.54 L54.08 409.54 L54.08 423.71 L68.25 395.36
						 L54.08 367.02 L54.08 381.19 L14.17 381.19 Z" class="st4"/>
			<text x="8.63" y="400.76" class="st5" v:langID="2052"><v:paragraph v:horizAlign="1"/><v:tabList/>MQTT</text>		</g>
		<g id="shape1010-26" v:mID="1010" v:groupContext="shape" transform="translate(905.055,156.009) rotate(90)">
			<title>一维双向箭头.1010</title>
			<desc>ESP-TOUCH</desc>
			<v:userDefs>
				<v:ud v:nameU="visVersion" v:val="VT0(15):26"/>
			</v:userDefs>
			<v:textBlock v:margins="rect(4,4,4,4)" v:tabSpace="42.5197"/>
			<v:textRect cx="54.2935" cy="395.362" width="108.59" height="56.6929" transform="rotate(-180)"/>
			<path d="M14.17 381.19 L14.17 367.02 L0 395.36 L14.17 423.71 L14.17 409.54 L94.41 409.54 L94.41 423.71 L108.59 395.36
						 L94.41 367.02 L94.41 381.19 L14.17 381.19 Z" class="st4"/>
			<text x="-103.8" y="-389.96" transform="rotate(180)" class="st5" v:langID="1033"><v:paragraph v:horizAlign="1"/><v:tabList/>ESP<tspan
						class="st3" v:langID="2052">-</tspan>TOUCH</text>		</g>
		<g id="shape1011-30" v:mID="1011" v:groupContext="shape" transform="translate(683.432,-66.0373)">
			<title>框.1011</title>
			<desc>AP/Routing</desc>
			<v:userDefs>
				<v:ud v:nameU="visVersion" v:val="VT0(15):26"/>
			</v:userDefs>
			<v:textBlock v:margins="rect(4,4,4,4)" v:tabSpace="42.5197"/>
			<v:textRect cx="62.0497" cy="377.171" width="124.1" height="93.0746"/>
			<rect x="0" y="330.634" width="124.099" height="93.0746" class="st4"/>
			<text x="19.04" y="382.57" class="st5" v:langID="2052"><v:paragraph v:horizAlign="1"/><v:tabList/>AP/R<tspan
						class="st3" v:langID="1033">outing</tspan></text>		</g>
		<g id="shape1012-34" v:mID="1012" v:groupContext="shape" transform="translate(683.432,706.496) rotate(180)">
			<title>一维双向箭头.1012</title>
			<desc>ESP-TOUCH</desc>
			<v:userDefs>
				<v:ud v:nameU="visVersion" v:val="VT0(15):26"/>
			</v:userDefs>
			<v:textBlock v:margins="rect(4,4,4,4)" v:tabSpace="42.5197"/>
			<v:textRect cx="55.8447" cy="395.362" width="111.69" height="56.6929" transform="rotate(180)"/>
			<path d="M14.17 381.19 L14.17 367.02 L0 395.36 L14.17 423.71 L14.17 409.54 L97.52 409.54 L97.52 423.71 L111.69 395.36
						 L97.52 367.02 L97.52 381.19 L14.17 381.19 Z" class="st4"/>
			<text x="-105.35" y="-389.96" transform="rotate(180)" class="st5" v:langID="1033"><v:paragraph v:horizAlign="1"/><v:tabList/>ESP-TOUCH</text>		</g>
		<g id="shape1013-37" v:mID="1013" v:groupContext="shape" transform="translate(44.3199,-267.699)">
			<title>框.1013</title>
			<desc>IC Peripherals</desc>
			<v:userDefs>
				<v:ud v:nameU="visVersion" v:val="VT0(15):26"/>
			</v:userDefs>
			<v:textBlock v:margins="rect(4,4,4,4)" v:tabSpace="42.5197"/>
			<v:textRect cx="62.0497" cy="377.171" width="124.1" height="93.0746"/>
			<rect x="0" y="330.634" width="124.099" height="93.0746" class="st4"/>
			<text x="10.31" y="382.57" class="st5" v:langID="1033"><v:paragraph v:horizAlign="1"/><v:tabList/>IC <tspan class="st3"
						v:langID="2052">P</tspan>eripherals</text>		</g>
		<g id="shape1015-41" v:mID="1015" v:groupContext="shape" transform="translate(168.419,-285.89)">
			<title>一维双向箭头.1015</title>
			<desc>I2C</desc>
			<v:userDefs>
				<v:ud v:nameU="visVersion" v:val="VT0(15):26"/>
			</v:userDefs>
			<v:textBlock v:margins="rect(4,4,4,4)" v:tabSpace="42.5197"/>
			<v:textRect cx="34.1273" cy="395.362" width="68.26" height="56.6929"/>
			<path d="M14.17 381.19 L14.17 367.02 L0 395.36 L14.17 423.71 L14.17 409.54 L54.08 409.54 L54.08 423.71 L68.25 395.36
						 L54.08 367.02 L54.08 381.19 L14.17 381.19 Z" class="st4"/>
			<text x="20.63" y="400.76" class="st5" v:langID="2052"><v:paragraph v:horizAlign="1"/><v:tabList/>I2C</text>		</g>
		<g id="group1016-44" transform="translate(694.086,156.009) rotate(90)" v:mID="1016" v:groupContext="group">
			<v:userDefs>
				<v:ud v:nameU="visVersion" v:val="VT0(15):26"/>
			</v:userDefs>
			<title>一维单向箭头.1016</title>
			<desc>PWM</desc>
			<g id="shape1017-45" v:mID="1017" v:groupContext="shape">
				<title>工作表.1017</title>
				<path d="M0 409.54 L94.41 409.54 L94.41 423.71 L108.59 395.36 L94.41 367.02 L94.41 381.19 L0 381.19 L0 409.54 Z"
						class="st7"/>
				<path d="M0 409.54 L94.41 409.54 L94.41 423.71 L108.59 395.36 L94.41 367.02 L94.41 381.19 L0 381.19" class="st8"/>
			</g>
			<g id="shape1018-48" v:mID="1018" v:groupContext="shape">
				<title>工作表.1018</title>
				<path d="M0 409.54 L94.41 409.54 L94.41 423.71 L108.59 395.36 L94.41 367.02 L94.41 381.19 L0 381.19 L0 409.54"
						class="st8"/>
			</g>
			<g id="shape1019-51" v:mID="1019" v:groupContext="shape" transform="translate(-1.39233,-14.4132)">
				<title>工作表.1019</title>
				<rect x="0" y="395.842" width="0.612913" height="27.8665" class="st9"/>
			</g>
			<g id="shape1016-53" v:mID="1016" v:groupContext="groupContent">
				<v:textBlock v:margins="rect(4,4,4,4)" v:tabSpace="42.5197"/>
				<v:textRect cx="54.2935" cy="395.362" width="108.59" height="56.6929"/>
				<text x="32.79" y="400.76" class="st5" v:langID="2052"><v:paragraph v:horizAlign="1"/><v:tabList/>PWM</text>			</g>
		</g>
		<g id="shape1021-55" v:mID="1021" v:groupContext="shape" transform="translate(236.674,-66.0373)">
			<title>框.1021</title>
			<desc>Power Peripherals</desc>
			<v:userDefs>
				<v:ud v:nameU="visVersion" v:val="VT0(15):26"/>
			</v:userDefs>
			<v:textBlock v:margins="rect(4,4,4,4)" v:tabSpace="42.5197"/>
			<v:textRect cx="62.0497" cy="377.171" width="124.1" height="93.0746"/>
			<rect x="0" y="330.634" width="124.099" height="93.0746" class="st4"/>
			<text x="39.05" y="371.77" class="st5" v:langID="1033"><v:paragraph v:horizAlign="1"/><v:tabList/>Power <tspan
						x="21.56" dy="1.2em" class="st3">Peripherals</tspan></text>		</g>
		<g id="shape1022-59" v:mID="1022" v:groupContext="shape" transform="translate(698.944,-159.112)">
			<title>菱形.1022</title>
			<desc>Internet</desc>
			<v:userDefs>
				<v:ud v:nameU="visVersion" v:val="VT0(15):26"/>
			</v:userDefs>
			<v:textBlock v:margins="rect(4,4,4,4)" v:tabSpace="42.5197"/>
			<v:textRect cx="46.5373" cy="369.415" width="69.81" height="54.2935"/>
			<path d="M0 369.41 L46.54 315.12 L93.07 369.41 L46.54 423.71 L0 369.41 Z" class="st4"/>
			<text x="18.55" y="374.81" class="st5" v:langID="2052"><v:paragraph v:horizAlign="1"/><v:tabList/>Internet</text>		</g>
		<g id="shape1023-62" v:mID="1023" v:groupContext="shape" transform="translate(615.177,-185.059)">
			<title>一维双向箭头.1023</title>
			<v:userDefs>
				<v:ud v:nameU="visVersion" v:val="VT0(15):26"/>
			</v:userDefs>
			<path d="M14.17 381.19 L14.17 367.02 L0 395.36 L14.17 423.71 L14.17 409.54 L69.59 409.54 L69.59 423.71 L83.77 395.36
						 L69.59 367.02 L69.59 381.19 L14.17 381.19 Z" class="st4"/>
		</g>
	</g>
</svg>
